<?xml version="1.0" encoding="UTF-8" standalone="no"?>
<!-- Created with Inkscape (http://www.inkscape.org/) -->

<svg
   xmlns:dc="http://purl.org/dc/elements/1.1/"
   xmlns:cc="http://creativecommons.org/ns#"
   xmlns:rdf="http://www.w3.org/1999/02/22-rdf-syntax-ns#"
   xmlns:svg="http://www.w3.org/2000/svg"
   xmlns="http://www.w3.org/2000/svg"
   xmlns:sodipodi="http://sodipodi.sourceforge.net/DTD/sodipodi-0.dtd"
   xmlns:inkscape="http://www.inkscape.org/namespaces/inkscape"
   width="400"
   height="400"
   viewBox="0 0 105.832 105.832"
   version="1.1"
   id="svg66"
   inkscape:version="0.92.4 (5da689c313, 2019-01-14)"
   sodipodi:docname="email.svg"
   inkscape:export-filename="C:\Users\Michael\Documents\website-master\website-master\email.png"
   inkscape:export-xdpi="96"
   inkscape:export-ydpi="96">
  <defs
     id="defs60" />
  <sodipodi:namedview
     id="base"
     pagecolor="#ffffff"
     bordercolor="#666666"
     borderopacity="1.0"
     inkscape:pageopacity="0.0"
     inkscape:pageshadow="2"
     inkscape:zoom="1.1125"
     inkscape:cx="249.64597"
     inkscape:cy="122.29324"
     inkscape:document-units="px"
     inkscape:current-layer="layer1"
     showgrid="false"
     units="px"
     scale-x="0.26458"
     inkscape:pagecheckerboard="true"
     inkscape:window-width="1920"
     inkscape:window-height="1057"
     inkscape:window-x="-8"
     inkscape:window-y="-8"
     inkscape:window-maximized="1" />
  <metadata
     id="metadata63">
    <rdf:RDF>
      <cc:Work
         rdf:about="">
        <dc:format>image/svg+xml</dc:format>
        <dc:type
           rdf:resource="http://purl.org/dc/dcmitype/StillImage" />
        <dc:title></dc:title>
      </cc:Work>
    </rdf:RDF>
  </metadata>
  <g
     inkscape:label="Layer 1"
     inkscape:groupmode="layer"
     id="layer1"
     transform="translate(0,-191.16665)">
    <g
       transform="translate(-1.8511873e-7,-7.0833979e-6)"
       id="layer1-1"
       inkscape:label="Layer 1">
      <rect
         ry="15.501436"
         y="191.16666"
         x="0"
         height="105.832"
         width="105.832"
         id="rect3982"
         style="opacity:0.5;fill:#000000;stroke-width:0.26027533"
         rx="15.501436" />
    </g>
    <path
       style="fill:none;fill-opacity:0.50196078;stroke:none;stroke-width:0;stroke-miterlimit:4;stroke-dasharray:none;stroke-opacity:1;opacity:0.8"
       d="m 116.05544,196.49642 c 0,-62.58308 0.0345,-65.89783 0.68359,-65.71264 1.04375,0.29777 168.50611,65.11911 169.12184,65.46369 0.33734,0.18879 -31.03539,12.51008 -83.94981,32.97036 -46.46864,17.96791 -84.79605,32.78533 -85.17203,32.92759 -0.64936,0.24571 -0.68359,-3.04168 -0.68359,-65.649 z"
       id="path5156"
       inkscape:connector-curvature="0"
       transform="matrix(0.26458,0,0,0.26458,0,191.16665)" />
    <path
       style="opacity:0.8;fill:none;fill-opacity:0.50196078;stroke:none;stroke-width:0;stroke-miterlimit:4;stroke-dasharray:none;stroke-opacity:1"
       d="m 116.05544,196.49642 c 0,-62.58308 0.0345,-65.89783 0.68359,-65.71264 1.04375,0.29777 168.50611,65.11911 169.12184,65.46369 0.33734,0.18879 -31.03539,12.51008 -83.94981,32.97036 -46.46864,17.96791 -84.79605,32.78533 -85.17203,32.92759 -0.64936,0.24571 -0.68359,-3.04168 -0.68359,-65.649 z"
       id="path5158"
       inkscape:connector-curvature="0"
       transform="matrix(0.26458,0,0,0.26458,0,191.16665)" />
    <path
       style="opacity:0.8;fill:none;fill-opacity:0.50196078;stroke:none;stroke-width:0;stroke-miterlimit:4;stroke-dasharray:none;stroke-opacity:1"
       d="m 116.05544,196.49642 c 0,-62.58308 0.0345,-65.89783 0.68359,-65.71264 1.04375,0.29777 168.50611,65.11911 169.12184,65.46369 0.33734,0.18879 -31.03539,12.51008 -83.94981,32.97036 -46.46864,17.96791 -84.79605,32.78533 -85.17203,32.92759 -0.64936,0.24571 -0.68359,-3.04168 -0.68359,-65.649 z"
       id="path5160"
       inkscape:connector-curvature="0"
       transform="matrix(0.26458,0,0,0.26458,0,191.16665)" />
    <path
       style="opacity:0.8;fill:none;fill-opacity:0.50196078;stroke:none;stroke-width:0;stroke-miterlimit:4;stroke-dasharray:none;stroke-opacity:1"
       d="m 116.05544,196.49642 c 0,-62.58308 0.0345,-65.89783 0.68359,-65.71264 1.04375,0.29777 168.50611,65.11911 169.12184,65.46369 0.33734,0.18879 -31.03539,12.51008 -83.94981,32.97036 -46.46864,17.96791 -84.79605,32.78533 -85.17203,32.92759 -0.64936,0.24571 -0.68359,-3.04168 -0.68359,-65.649 z"
       id="path5162"
       inkscape:connector-curvature="0"
       transform="matrix(0.26458,0,0,0.26458,0,191.16665)" />
    <path
       style="opacity:0.8;fill:none;fill-opacity:0.50196078;stroke:none;stroke-width:0;stroke-miterlimit:4;stroke-dasharray:none;stroke-opacity:1"
       d="m 116.05544,196.49642 c 0,-62.58308 0.0345,-65.89783 0.68359,-65.71264 1.04375,0.29777 168.50611,65.11911 169.12184,65.46369 0.33734,0.18879 -31.03539,12.51008 -83.94981,32.97036 -46.46864,17.96791 -84.79605,32.78533 -85.17203,32.92759 -0.64936,0.24571 -0.68359,-3.04168 -0.68359,-65.649 z"
       id="path5164"
       inkscape:connector-curvature="0"
       transform="matrix(0.26458,0,0,0.26458,0,191.16665)" />
    <path
       style="opacity:0.8;fill:none;fill-opacity:0.50196078;stroke:none;stroke-width:0;stroke-miterlimit:4;stroke-dasharray:none;stroke-opacity:1"
       d="m 116.05544,196.49642 c 0,-62.58308 0.0345,-65.89783 0.68359,-65.71264 1.04375,0.29777 168.50611,65.11911 169.12184,65.46369 0.33734,0.18879 -31.03539,12.51008 -83.94981,32.97036 -46.46864,17.96791 -84.79605,32.78533 -85.17203,32.92759 -0.64936,0.24571 -0.68359,-3.04168 -0.68359,-65.649 z"
       id="path5166"
       inkscape:connector-curvature="0"
       transform="matrix(0.26458,0,0,0.26458,0,191.16665)" />
    <path
       style="opacity:0.8;fill:none;fill-opacity:0.50196078;stroke:none;stroke-width:0;stroke-miterlimit:4;stroke-dasharray:none;stroke-opacity:1"
       d="m 116.05544,196.49642 c 0,-62.58308 0.0345,-65.89783 0.68359,-65.71264 1.04375,0.29777 168.50611,65.11911 169.12184,65.46369 0.33734,0.18879 -31.03539,12.51008 -83.94981,32.97036 -46.46864,17.96791 -84.79605,32.78533 -85.17203,32.92759 -0.64936,0.24571 -0.68359,-3.04168 -0.68359,-65.649 z"
       id="path5168"
       inkscape:connector-curvature="0"
       transform="matrix(0.26458,0,0,0.26458,0,191.16665)" />
    <rect
       style="opacity:1;fill:none;fill-opacity:1;stroke:#fffafa;stroke-width:1.55883873;stroke-linecap:butt;stroke-linejoin:miter;stroke-miterlimit:4;stroke-dasharray:none;stroke-opacity:1"
       id="rect832"
       width="75.169357"
       height="46.065559"
       x="15.33132"
       y="221.04987" />
    <rect
       style="opacity:1;fill:none;fill-opacity:1;stroke:#fffafa;stroke-width:1.73339367;stroke-linecap:butt;stroke-linejoin:miter;stroke-miterlimit:4;stroke-dasharray:none;stroke-opacity:1"
       id="rect836"
       width="42.583702"
       height="0.28889897"
       x="124.46561"
       y="183.84769"
       transform="rotate(30)" />
    <rect
       style="opacity:1;fill:none;fill-opacity:1;stroke:#fffafa;stroke-width:1.73264945;stroke-linecap:butt;stroke-linejoin:miter;stroke-miterlimit:4;stroke-dasharray:none;stroke-opacity:1"
       id="rect836-9"
       width="42.565426"
       height="0.28877494"
       x="-75.389481"
       y="-237.05159"
       transform="matrix(0.8660254,-0.5,-0.5,-0.8660254,0,0)" />
  </g>
</svg>
