<?xml version="1.0" encoding="UTF-8" standalone="no"?>
<!-- Created with Inkscape (http://www.inkscape.org/) -->

<svg
   xmlns:dc="http://purl.org/dc/elements/1.1/"
   xmlns:cc="http://creativecommons.org/ns#"
   xmlns:rdf="http://www.w3.org/1999/02/22-rdf-syntax-ns#"
   xmlns:svg="http://www.w3.org/2000/svg"
   xmlns="http://www.w3.org/2000/svg"
   xmlns:sodipodi="http://sodipodi.sourceforge.net/DTD/sodipodi-0.dtd"
   xmlns:inkscape="http://www.inkscape.org/namespaces/inkscape"
   width="400"
   height="400"
   viewBox="0 0 105.832 105.832"
   version="1.1"
   id="svg66"
   inkscape:version="0.92.4 (5da689c313, 2019-01-14)"
   sodipodi:docname="f.svg">
  <defs
     id="defs60" />
  <sodipodi:namedview
     id="base"
     pagecolor="#ffffff"
     bordercolor="#666666"
     borderopacity="1.0"
     inkscape:pageopacity="0.0"
     inkscape:pageshadow="2"
     inkscape:zoom="1"
     inkscape:cx="256.61448"
     inkscape:cy="183.95199"
     inkscape:document-units="px"
     inkscape:current-layer="layer1"
     showgrid="false"
     units="px"
     scale-x="0.26458"
     inkscape:pagecheckerboard="true"
     inkscape:window-width="944"
     inkscape:window-height="1042"
     inkscape:window-x="960"
     inkscape:window-y="0"
     inkscape:window-maximized="0" />
  <metadata
     id="metadata63">
    <rdf:RDF>
      <cc:Work
         rdf:about="">
        <dc:format>image/svg+xml</dc:format>
        <dc:type
           rdf:resource="http://purl.org/dc/dcmitype/StillImage" />
        <dc:title />
      </cc:Work>
    </rdf:RDF>
  </metadata>
  <g
     inkscape:label="Layer 1"
     inkscape:groupmode="layer"
     id="layer1"
     transform="translate(0,-191.16665)">
    <rect
       style="opacity:0.5;fill:#000000;stroke-width:0.26027533"
       id="rect3982-2"
       width="105.832"
       height="105.832"
       x="1.110223e-16"
       y="191.16666"
       ry="15.501436" />
    <path
       style="fill:#ffffff;stroke-width:0.21022663"
       d="M 91.941551,250.60266 90.24068,270.25718 H 42.994251 v -19.65452 z"
       id="rect13-8"
       inkscape:connector-curvature="0"
       sodipodi:nodetypes="ccccc" />
    <path
       id="rect13-1"
       style="fill:#ffffff;stroke-width:0.15572563"
       d="m 93.075467,204.02341 v 21.82212 H 68.885292 v -21.82212 z m -36.093496,2.96072 c 1.959952,-1.95995 3.965919,-2.97218 7.93462,-2.96645 3.968701,0.006 10.866679,0 10.866679,0 V 300.4004 H 54.049911 V 288.35256 276.30472 264.25688 252.20904 240.1612 228.11336 c 0,0 0.03192,-8.91216 0,-12.04784 -0.03192,-3.13568 0.09235,-6.24168 2.93206,-9.08139 z"
       inkscape:connector-curvature="0" />
    <path
       style="fill:#ffffff;stroke-width:0.26804215"
       d="m 75.717698,225.83681 v 3.81241 h 0.0052 a 3.7417261,3.7547384 0 0 1 -0.0026,-0.057 3.7417261,3.7547384 0 0 1 3.741843,-3.75484 3.7417261,3.7547384 0 0 1 0.05116,0.003 v -0.003 z"
       id="rect4572"
       inkscape:connector-curvature="0" />
  </g>
</svg>
