<?xml version="1.0" encoding="UTF-8" standalone="no"?>
<!-- Created with Inkscape (http://www.inkscape.org/) -->

<svg
   xmlns:dc="http://purl.org/dc/elements/1.1/"
   xmlns:cc="http://creativecommons.org/ns#"
   xmlns:rdf="http://www.w3.org/1999/02/22-rdf-syntax-ns#"
   xmlns:svg="http://www.w3.org/2000/svg"
   xmlns="http://www.w3.org/2000/svg"
   xmlns:sodipodi="http://sodipodi.sourceforge.net/DTD/sodipodi-0.dtd"
   xmlns:inkscape="http://www.inkscape.org/namespaces/inkscape"
   width="400"
   height="400"
   viewBox="0 0 105.832 105.832"
   version="1.1"
   id="svg66"
   inkscape:version="0.92.4 (5da689c313, 2019-01-14)"
   sodipodi:docname="home.svg"
   inkscape:export-filename="C:\Users\Michael\Documents\website-master\website-master\email.png"
   inkscape:export-xdpi="96"
   inkscape:export-ydpi="96">
  <defs
     id="defs60" />
  <sodipodi:namedview
     id="base"
     pagecolor="#ffffff"
     bordercolor="#666666"
     borderopacity="1.0"
     inkscape:pageopacity="0.0"
     inkscape:pageshadow="2"
     inkscape:zoom="1"
     inkscape:cx="80.207099"
     inkscape:cy="-33.000289"
     inkscape:document-units="px"
     inkscape:current-layer="layer1"
     showgrid="false"
     units="px"
     scale-x="0.26458"
     inkscape:pagecheckerboard="true"
     inkscape:window-width="1920"
     inkscape:window-height="1057"
     inkscape:window-x="-8"
     inkscape:window-y="-8"
     inkscape:window-maximized="1"
     showguides="false" />
  <metadata
     id="metadata63">
    <rdf:RDF>
      <cc:Work
         rdf:about="">
        <dc:format>image/svg+xml</dc:format>
        <dc:type
           rdf:resource="http://purl.org/dc/dcmitype/StillImage" />
        <dc:title></dc:title>
      </cc:Work>
    </rdf:RDF>
  </metadata>
  <g
     inkscape:label="Layer 1"
     inkscape:groupmode="layer"
     id="layer1"
     transform="translate(0,-191.16665)">
    <g
       transform="translate(-1.8511873e-7,-7.0833979e-6)"
       id="layer1-1"
       inkscape:label="Layer 1">
      <rect
         ry="15.501436"
         y="191.16666"
         x="0"
         height="105.832"
         width="105.832"
         id="rect3982"
         style="opacity:0.5;fill:#000000;stroke-width:0.26027533"
         rx="15.501436" />
    </g>
    <path
       style="fill:none;fill-opacity:0.50196078;stroke:none;stroke-width:0;stroke-miterlimit:4;stroke-dasharray:none;stroke-opacity:1;opacity:0.8"
       d="m 116.05544,196.49642 c 0,-62.58308 0.0345,-65.89783 0.68359,-65.71264 1.04375,0.29777 168.50611,65.11911 169.12184,65.46369 0.33734,0.18879 -31.03539,12.51008 -83.94981,32.97036 -46.46864,17.96791 -84.79605,32.78533 -85.17203,32.92759 -0.64936,0.24571 -0.68359,-3.04168 -0.68359,-65.649 z"
       id="path5156"
       inkscape:connector-curvature="0"
       transform="matrix(0.26458,0,0,0.26458,0,191.16665)" />
    <path
       style="opacity:0.8;fill:none;fill-opacity:0.50196078;stroke:none;stroke-width:0;stroke-miterlimit:4;stroke-dasharray:none;stroke-opacity:1"
       d="m 116.05544,196.49642 c 0,-62.58308 0.0345,-65.89783 0.68359,-65.71264 1.04375,0.29777 168.50611,65.11911 169.12184,65.46369 0.33734,0.18879 -31.03539,12.51008 -83.94981,32.97036 -46.46864,17.96791 -84.79605,32.78533 -85.17203,32.92759 -0.64936,0.24571 -0.68359,-3.04168 -0.68359,-65.649 z"
       id="path5158"
       inkscape:connector-curvature="0"
       transform="matrix(0.26458,0,0,0.26458,0,191.16665)" />
    <path
       style="opacity:0.8;fill:none;fill-opacity:0.50196078;stroke:none;stroke-width:0;stroke-miterlimit:4;stroke-dasharray:none;stroke-opacity:1"
       d="m 116.05544,196.49642 c 0,-62.58308 0.0345,-65.89783 0.68359,-65.71264 1.04375,0.29777 168.50611,65.11911 169.12184,65.46369 0.33734,0.18879 -31.03539,12.51008 -83.94981,32.97036 -46.46864,17.96791 -84.79605,32.78533 -85.17203,32.92759 -0.64936,0.24571 -0.68359,-3.04168 -0.68359,-65.649 z"
       id="path5160"
       inkscape:connector-curvature="0"
       transform="matrix(0.26458,0,0,0.26458,0,191.16665)" />
    <path
       style="opacity:0.8;fill:none;fill-opacity:0.50196078;stroke:none;stroke-width:0;stroke-miterlimit:4;stroke-dasharray:none;stroke-opacity:1"
       d="m 116.05544,196.49642 c 0,-62.58308 0.0345,-65.89783 0.68359,-65.71264 1.04375,0.29777 168.50611,65.11911 169.12184,65.46369 0.33734,0.18879 -31.03539,12.51008 -83.94981,32.97036 -46.46864,17.96791 -84.79605,32.78533 -85.17203,32.92759 -0.64936,0.24571 -0.68359,-3.04168 -0.68359,-65.649 z"
       id="path5162"
       inkscape:connector-curvature="0"
       transform="matrix(0.26458,0,0,0.26458,0,191.16665)" />
    <path
       style="opacity:0.8;fill:none;fill-opacity:0.50196078;stroke:none;stroke-width:0;stroke-miterlimit:4;stroke-dasharray:none;stroke-opacity:1"
       d="m 116.05544,196.49642 c 0,-62.58308 0.0345,-65.89783 0.68359,-65.71264 1.04375,0.29777 168.50611,65.11911 169.12184,65.46369 0.33734,0.18879 -31.03539,12.51008 -83.94981,32.97036 -46.46864,17.96791 -84.79605,32.78533 -85.17203,32.92759 -0.64936,0.24571 -0.68359,-3.04168 -0.68359,-65.649 z"
       id="path5164"
       inkscape:connector-curvature="0"
       transform="matrix(0.26458,0,0,0.26458,0,191.16665)" />
    <path
       style="opacity:0.8;fill:none;fill-opacity:0.50196078;stroke:none;stroke-width:0;stroke-miterlimit:4;stroke-dasharray:none;stroke-opacity:1"
       d="m 116.05544,196.49642 c 0,-62.58308 0.0345,-65.89783 0.68359,-65.71264 1.04375,0.29777 168.50611,65.11911 169.12184,65.46369 0.33734,0.18879 -31.03539,12.51008 -83.94981,32.97036 -46.46864,17.96791 -84.79605,32.78533 -85.17203,32.92759 -0.64936,0.24571 -0.68359,-3.04168 -0.68359,-65.649 z"
       id="path5166"
       inkscape:connector-curvature="0"
       transform="matrix(0.26458,0,0,0.26458,0,191.16665)" />
    <path
       style="opacity:0.8;fill:none;fill-opacity:0.50196078;stroke:none;stroke-width:0;stroke-miterlimit:4;stroke-dasharray:none;stroke-opacity:1"
       d="m 116.05544,196.49642 c 0,-62.58308 0.0345,-65.89783 0.68359,-65.71264 1.04375,0.29777 168.50611,65.11911 169.12184,65.46369 0.33734,0.18879 -31.03539,12.51008 -83.94981,32.97036 -46.46864,17.96791 -84.79605,32.78533 -85.17203,32.92759 -0.64936,0.24571 -0.68359,-3.04168 -0.68359,-65.649 z"
       id="path5168"
       inkscape:connector-curvature="0"
       transform="matrix(0.26458,0,0,0.26458,0,191.16665)" />
    <rect
       style="opacity:1;fill:none;fill-opacity:1;stroke:#fffafa;stroke-width:1.82246768;stroke-linecap:butt;stroke-linejoin:miter;stroke-miterlimit:4;stroke-dasharray:none;stroke-opacity:1"
       id="rect836"
       width="47.072632"
       height="0.28889909"
       x="248.9512"
       y="-28.193127"
       transform="matrix(-0.0018015,0.99999838,-0.99999758,-0.00220132,0,0)" />
    <rect
       style="opacity:1;fill:none;fill-opacity:1;stroke:#fffafa;stroke-width:1.82246768;stroke-linecap:butt;stroke-linejoin:miter;stroke-miterlimit:4;stroke-dasharray:none;stroke-opacity:1"
       id="rect836-4"
       width="47.072632"
       height="0.28889909"
       x="248.83472"
       y="-81.109047"
       transform="matrix(-0.0018015,0.99999838,-0.99999758,-0.00220132,0,0)" />
    <rect
       style="opacity:1;fill:none;fill-opacity:1;stroke:#fffafa;stroke-width:1.94029903;stroke-linecap:butt;stroke-linejoin:miter;stroke-miterlimit:4;stroke-dasharray:none;stroke-opacity:1"
       id="rect836-42"
       width="77.423981"
       height="0.19909342"
       x="-92.937492"
       y="-249.1981"
       transform="matrix(-0.99999972,-7.5479767e-4,0.00525388,-0.9999862,0,0)" />
    <rect
       style="opacity:1;fill:none;fill-opacity:1;stroke:#fffafa;stroke-width:1.43083203;stroke-linecap:butt;stroke-linejoin:miter;stroke-miterlimit:4;stroke-dasharray:none;stroke-opacity:1"
       id="rect836-42-6"
       width="51.471581"
       height="0.16285641"
       x="98.788498"
       y="-197.64751"
       transform="matrix(-0.75843101,0.65175333,-0.64921559,-0.76060444,0,0)" />
    <rect
       style="opacity:1;fill:none;fill-opacity:1;stroke:#fffafa;stroke-width:1.4138248;stroke-linecap:butt;stroke-linejoin:miter;stroke-miterlimit:4;stroke-dasharray:none;stroke-opacity:1"
       id="rect836-42-6-2"
       width="50.859779"
       height="0.16092066"
       x="181.81837"
       y="-125.24557"
       transform="matrix(0.74871606,0.66289084,0.6603855,-0.75092675,0,0)" />
    <rect
       style="opacity:1;fill:none;fill-opacity:1;stroke:#fffafa;stroke-width:1.62980866;stroke-linecap:butt;stroke-linejoin:miter;stroke-miterlimit:4;stroke-dasharray:none;stroke-opacity:1"
       id="rect836-2"
       width="24.824612"
       height="0.43811265"
       x="271.3168"
       y="-59.676079"
       transform="matrix(-0.00518037,0.99998658,-0.99999971,-7.6551275e-4,0,0)" />
    <rect
       style="opacity:1;fill:none;fill-opacity:1;stroke:#fffafa;stroke-width:1.62980866;stroke-linecap:butt;stroke-linejoin:miter;stroke-miterlimit:4;stroke-dasharray:none;stroke-opacity:1"
       id="rect836-2-6"
       width="24.824612"
       height="0.43811268"
       x="271.30566"
       y="-74.227921"
       transform="matrix(-0.00518037,0.99998658,-0.99999971,-7.6551195e-4,0,0)" />
    <rect
       style="opacity:1;fill:none;fill-opacity:1;stroke:#fffafa;stroke-width:1.28118169;stroke-linecap:butt;stroke-linejoin:miter;stroke-miterlimit:4;stroke-dasharray:none;stroke-opacity:1"
       id="rect836-2-3"
       width="15.340189"
       height="0.43811259"
       x="57.785378"
       y="270.436"
       transform="matrix(0.99996486,0.00838326,-4.7303236e-4,0.99999989,0,0)" />
    <rect
       style="opacity:1;fill:none;fill-opacity:1;stroke:#fffafa;stroke-width:1.12822366;stroke-linecap:butt;stroke-linejoin:miter;stroke-miterlimit:4;stroke-dasharray:none;stroke-opacity:1"
       id="rect836-2-7"
       width="11.895967"
       height="0.43811259"
       x="208.37862"
       y="-62.985329"
       transform="matrix(-0.01081044,0.99994157,-0.99999993,-3.6681729e-4,0,0)" />
    <rect
       style="opacity:1;fill:none;fill-opacity:1;stroke:#fffafa;stroke-width:1.61786103;stroke-linecap:butt;stroke-linejoin:miter;stroke-miterlimit:4;stroke-dasharray:none;stroke-opacity:1"
       id="rect836-2-6-7"
       width="24.461983"
       height="0.43811271"
       x="208.33498"
       y="-76.379829"
       transform="matrix(-0.00525716,0.99998618,-0.99999972,-7.5432934e-4,0,0)" />
    <rect
       style="opacity:1;fill:none;fill-opacity:1;stroke:#fffafa;stroke-width:1.2709471;stroke-linecap:butt;stroke-linejoin:miter;stroke-miterlimit:4;stroke-dasharray:none;stroke-opacity:1"
       id="rect836-2-3-8"
       width="15.096079"
       height="0.43811259"
       x="60.460407"
       y="207.43628"
       transform="matrix(0.99996371,0.00851882,-4.6550408e-4,0.99999989,0,0)" />
  </g>
</svg>
