<?xml version="1.0" encoding="UTF-8" standalone="no"?>
<!-- Created with Inkscape (http://www.inkscape.org/) -->

<svg
   xmlns:dc="http://purl.org/dc/elements/1.1/"
   xmlns:cc="http://creativecommons.org/ns#"
   xmlns:rdf="http://www.w3.org/1999/02/22-rdf-syntax-ns#"
   xmlns:svg="http://www.w3.org/2000/svg"
   xmlns="http://www.w3.org/2000/svg"
   xmlns:sodipodi="http://sodipodi.sourceforge.net/DTD/sodipodi-0.dtd"
   xmlns:inkscape="http://www.inkscape.org/namespaces/inkscape"
   width="400"
   height="400"
   viewBox="0 0 105.832 105.832"
   version="1.1"
   id="svg66"
   inkscape:version="0.92.4 (5da689c313, 2019-01-14)"
   sodipodi:docname="music.svg"
   inkscape:export-filename="C:\Users\Michael\Documents\website-master\website-master\music.png"
   inkscape:export-xdpi="96"
   inkscape:export-ydpi="96">
  <defs
     id="defs60" />
  <sodipodi:namedview
     id="base"
     pagecolor="#ffffff"
     bordercolor="#666666"
     borderopacity="1.0"
     inkscape:pageopacity="0.0"
     inkscape:pageshadow="2"
     inkscape:zoom="0.90509668"
     inkscape:cx="-136.02472"
     inkscape:cy="11.532973"
     inkscape:document-units="px"
     inkscape:current-layer="layer1"
     showgrid="false"
     units="px"
     scale-x="0.26458"
     inkscape:pagecheckerboard="true"
     inkscape:window-width="1920"
     inkscape:window-height="1057"
     inkscape:window-x="-8"
     inkscape:window-y="-8"
     inkscape:window-maximized="1" />
  <metadata
     id="metadata63">
    <rdf:RDF>
      <cc:Work
         rdf:about="">
        <dc:format>image/svg+xml</dc:format>
        <dc:type
           rdf:resource="http://purl.org/dc/dcmitype/StillImage" />
        <dc:title></dc:title>
      </cc:Work>
    </rdf:RDF>
  </metadata>
  <g
     inkscape:label="Layer 1"
     inkscape:groupmode="layer"
     id="layer1"
     transform="translate(0,-191.16665)">
    <g
       transform="translate(-1.8511873e-7,-7.0833979e-6)"
       id="layer1-1"
       inkscape:label="Layer 1">
      <rect
         ry="15.501436"
         y="191.16666"
         x="0"
         height="105.832"
         width="105.832"
         id="rect3982"
         style="opacity:0.5;fill:#000000;stroke-width:0.26027533"
         rx="15.501436" />
    </g>
    <path
       style="fill:none;fill-opacity:0.50196078;stroke:none;stroke-width:0;stroke-miterlimit:4;stroke-dasharray:none;stroke-opacity:1;opacity:0.8"
       d="m 116.05544,196.49642 c 0,-62.58308 0.0345,-65.89783 0.68359,-65.71264 1.04375,0.29777 168.50611,65.11911 169.12184,65.46369 0.33734,0.18879 -31.03539,12.51008 -83.94981,32.97036 -46.46864,17.96791 -84.79605,32.78533 -85.17203,32.92759 -0.64936,0.24571 -0.68359,-3.04168 -0.68359,-65.649 z"
       id="path5156"
       inkscape:connector-curvature="0"
       transform="matrix(0.26458,0,0,0.26458,0,191.16665)" />
    <path
       style="opacity:0.8;fill:none;fill-opacity:0.50196078;stroke:none;stroke-width:0;stroke-miterlimit:4;stroke-dasharray:none;stroke-opacity:1"
       d="m 116.05544,196.49642 c 0,-62.58308 0.0345,-65.89783 0.68359,-65.71264 1.04375,0.29777 168.50611,65.11911 169.12184,65.46369 0.33734,0.18879 -31.03539,12.51008 -83.94981,32.97036 -46.46864,17.96791 -84.79605,32.78533 -85.17203,32.92759 -0.64936,0.24571 -0.68359,-3.04168 -0.68359,-65.649 z"
       id="path5158"
       inkscape:connector-curvature="0"
       transform="matrix(0.26458,0,0,0.26458,0,191.16665)" />
    <path
       style="opacity:0.8;fill:none;fill-opacity:0.50196078;stroke:none;stroke-width:0;stroke-miterlimit:4;stroke-dasharray:none;stroke-opacity:1"
       d="m 116.05544,196.49642 c 0,-62.58308 0.0345,-65.89783 0.68359,-65.71264 1.04375,0.29777 168.50611,65.11911 169.12184,65.46369 0.33734,0.18879 -31.03539,12.51008 -83.94981,32.97036 -46.46864,17.96791 -84.79605,32.78533 -85.17203,32.92759 -0.64936,0.24571 -0.68359,-3.04168 -0.68359,-65.649 z"
       id="path5160"
       inkscape:connector-curvature="0"
       transform="matrix(0.26458,0,0,0.26458,0,191.16665)" />
    <path
       style="opacity:0.8;fill:none;fill-opacity:0.50196078;stroke:none;stroke-width:0;stroke-miterlimit:4;stroke-dasharray:none;stroke-opacity:1"
       d="m 116.05544,196.49642 c 0,-62.58308 0.0345,-65.89783 0.68359,-65.71264 1.04375,0.29777 168.50611,65.11911 169.12184,65.46369 0.33734,0.18879 -31.03539,12.51008 -83.94981,32.97036 -46.46864,17.96791 -84.79605,32.78533 -85.17203,32.92759 -0.64936,0.24571 -0.68359,-3.04168 -0.68359,-65.649 z"
       id="path5162"
       inkscape:connector-curvature="0"
       transform="matrix(0.26458,0,0,0.26458,0,191.16665)" />
    <path
       style="opacity:0.8;fill:none;fill-opacity:0.50196078;stroke:none;stroke-width:0;stroke-miterlimit:4;stroke-dasharray:none;stroke-opacity:1"
       d="m 116.05544,196.49642 c 0,-62.58308 0.0345,-65.89783 0.68359,-65.71264 1.04375,0.29777 168.50611,65.11911 169.12184,65.46369 0.33734,0.18879 -31.03539,12.51008 -83.94981,32.97036 -46.46864,17.96791 -84.79605,32.78533 -85.17203,32.92759 -0.64936,0.24571 -0.68359,-3.04168 -0.68359,-65.649 z"
       id="path5164"
       inkscape:connector-curvature="0"
       transform="matrix(0.26458,0,0,0.26458,0,191.16665)" />
    <path
       style="opacity:0.8;fill:none;fill-opacity:0.50196078;stroke:none;stroke-width:0;stroke-miterlimit:4;stroke-dasharray:none;stroke-opacity:1"
       d="m 116.05544,196.49642 c 0,-62.58308 0.0345,-65.89783 0.68359,-65.71264 1.04375,0.29777 168.50611,65.11911 169.12184,65.46369 0.33734,0.18879 -31.03539,12.51008 -83.94981,32.97036 -46.46864,17.96791 -84.79605,32.78533 -85.17203,32.92759 -0.64936,0.24571 -0.68359,-3.04168 -0.68359,-65.649 z"
       id="path5166"
       inkscape:connector-curvature="0"
       transform="matrix(0.26458,0,0,0.26458,0,191.16665)" />
    <path
       style="opacity:0.8;fill:none;fill-opacity:0.50196078;stroke:none;stroke-width:0;stroke-miterlimit:4;stroke-dasharray:none;stroke-opacity:1"
       d="m 116.05544,196.49642 c 0,-62.58308 0.0345,-65.89783 0.68359,-65.71264 1.04375,0.29777 168.50611,65.11911 169.12184,65.46369 0.33734,0.18879 -31.03539,12.51008 -83.94981,32.97036 -46.46864,17.96791 -84.79605,32.78533 -85.17203,32.92759 -0.64936,0.24571 -0.68359,-3.04168 -0.68359,-65.649 z"
       id="path5168"
       inkscape:connector-curvature="0"
       transform="matrix(0.26458,0,0,0.26458,0,191.16665)" />
    <g
       id="g5269"
       transform="matrix(1.0000605,0,0,0.9915164,3.626857,5.8663056)">
      <circle
         r="12.369025"
         cy="260.38104"
         cx="32.08662"
         id="path5209"
         style="opacity:1;fill:#ffffff;fill-opacity:1;stroke:#ffffff;stroke-width:1.7199496;stroke-linejoin:round;stroke-miterlimit:4;stroke-dasharray:none;stroke-opacity:0.99494952" />
      <rect
         ry="0"
         rx="0"
         y="215.23706"
         x="40.024021"
         height="45.143963"
         width="5.2916002"
         id="rect5217"
         style="opacity:1;fill:#ffffff;fill-opacity:1;stroke:none;stroke-width:0.78936952;stroke-linecap:butt;stroke-linejoin:miter;stroke-miterlimit:4;stroke-dasharray:none;stroke-opacity:0.99494952" />
      <rect
         transform="matrix(0.9786535,-0.20551723,0,1,0,0)"
         inkscape:transform-center-y="5.8207539"
         inkscape:transform-center-x="9.5083431"
         y="223.64211"
         x="40.89703"
         height="11.9061"
         width="40.552658"
         id="rect5219"
         style="opacity:1;fill:#ffffff;fill-opacity:1;stroke:none;stroke-width:1.75028014;stroke-linecap:butt;stroke-linejoin:miter;stroke-miterlimit:4;stroke-dasharray:none;stroke-opacity:0.99494952" />
      <circle
         r="12.369025"
         cy="253.18446"
         cx="66.482025"
         id="path5209-3"
         style="opacity:1;fill:#ffffff;fill-opacity:1;stroke:#ffffff;stroke-width:1.7199496;stroke-linejoin:round;stroke-miterlimit:4;stroke-dasharray:none;stroke-opacity:0.99494952" />
      <rect
         ry="0"
         rx="0"
         y="208.0405"
         x="74.419426"
         height="45.143963"
         width="5.2916002"
         id="rect5217-5"
         style="opacity:1;fill:#ffffff;fill-opacity:1;stroke:none;stroke-width:0.78936952;stroke-linecap:butt;stroke-linejoin:miter;stroke-miterlimit:4;stroke-dasharray:none;stroke-opacity:0.99494952" />
    </g>
  </g>
</svg>
